# xmcd
#
# Track frame offsets:
#	150
#	13479
#	26139
#	40303
#	54884
#	68536
#	80875
#	93972
#	106963
#	118370
#	131776
#	142933
#	154714
#	168885
#	181410
#	195635
#	207805
#	221250
#	235148
#	248963
#	260842
#	272634
#	286046
#	297654
#	311921
#	327511
#	342002
#
# Disc length: 4723 seconds
#
# Revision: 0
# Processed by: cddbd v1.5.1PL0 Copyright (c) Steve Scherf et al.
# Submitted via: audiograbber 1.83.01
#
DISCID=9b12711b
DTITLE=Lowell Fulson - Classic Cuts - 1946-53 - CD 2
DYEAR=1900
DGENRE=Blues
TTITLE0=Let's Throw a Boogie Woogie
TTITLE1=Highway 99
TTITLE2=Whiskey Blues
TTITLE3=Tell Me, Baby
TTITLE4=Fulson Boogie
TTITLE5=Highway '99'
TTITLE6=Trying to Find My baby
TTITLE7=Midnight Showers of Rain
TTITLE8=So Long, So Long
TTITLE9=Wee Hours In the Morning
TTITLE10=My Gal At Eight
TTITLE11=The Blues Got Me Down
TTITLE12=Black Cat Blues
TTITLE13=Just a Poor Boy
TTITLE14=Sweet Jenny Lee
TTITLE15=My Baby
TTITLE16=Television Blues
TTITLE17=Don't You Hear Me Calling You
TTITLE18=Demon Woman
TTITLE19=Tears At Sunrise
TTITLE20=Jam That Boogie
TTITLE21=Blues and Misery
TTITLE22=My Woman Can't Be Found
TTITLE23=Three O'Clock Blues
TTITLE24=Wild About You, Baby
TTITLE25=Prison Bound
TTITLE26=My Baby Left Me
EXTD=CD 2/4 - JSP7728B
EXTT0=
EXTT1=
EXTT2=
EXTT3=
EXTT4=
EXTT5=
EXTT6=
EXTT7=
EXTT8=
EXTT9=
EXTT10=
EXTT11=
EXTT12=
EXTT13=
EXTT14=
EXTT15=
EXTT16=
EXTT17=
EXTT18=
EXTT19=
EXTT20=
EXTT21=
EXTT22=
EXTT23=
EXTT24=
EXTT25=
EXTT26=
PLAYORDER=
